<?xml version="1.0" standalone="no"?>
<!DOCTYPE svg PUBLIC "-//W3C//DTD SVG 20010904//EN"
 "http://www.w3.org/TR/2001/REC-SVG-20010904/DTD/svg10.dtd">
<svg version="1.0" xmlns="http://www.w3.org/2000/svg"
 width="1283.000000pt" height="875.000000pt" viewBox="0 0 1283.000000 875.000000"
 preserveAspectRatio="xMidYMid meet">
<metadata>
Created by potrace 1.16, written by Peter Selinger 2001-2019
</metadata>
<g transform="translate(0.000000,875.000000) scale(0.100000,-0.100000)"
fill="#000000" stroke="none">
<path d="M3410 8550 l0 -190 -190 0 c-120 0 -190 -4 -190 -10 0 -6 69 -10 188
-10 l187 0 168 -168 167 -167 0 -288 0 -287 -285 0 -285 0 0 185 c0 117 -4
185 -10 185 -6 0 -10 -67 -10 -182 l0 -183 -165 165 -165 164 -3 191 -2 190
-3 -192 -2 -193 -160 0 c-153 0 -160 1 -160 20 0 11 -4 20 -10 20 -5 0 -10 -9
-10 -20 0 -13 -7 -20 -20 -20 -11 0 -20 -4 -20 -10 0 -5 9 -10 20 -10 19 0 20
-7 20 -160 l0 -160 -190 0 c-120 0 -190 -4 -190 -10 0 -6 69 -10 188 -10 l187
0 78 -78 77 -77 0 -83 0 -82 -95 0 c-57 0 -95 -4 -95 -10 0 -6 38 -10 95 -10
l95 0 0 -83 0 -82 -165 -165 -165 -165 -165 165 -165 165 0 187 c0 119 -4 188
-10 188 -6 0 -10 -70 -10 -190 l0 -190 -30 0 -29 0 -4 158 -3 157 -2 -157 -2
-158 -155 0 c-97 0 -155 -4 -155 -10 0 -6 58 -10 155 -10 l155 0 0 -25 0 -25
-195 0 c-123 0 -195 -4 -195 -10 0 -6 71 -10 193 -10 l192 0 165 -165 165
-165 -165 -165 -165 -165 -82 0 -83 0 0 95 c0 57 -4 95 -10 95 -6 0 -10 -38
-10 -95 l0 -95 -88 0 -87 0 -78 78 -77 77 -3 190 -2 190 -3 -192 -2 -193 -160
0 c-153 0 -160 1 -160 20 0 11 -4 20 -10 20 -5 0 -10 -9 -10 -20 0 -13 -7 -20
-20 -20 -11 0 -20 -4 -20 -10 0 -5 9 -10 20 -10 19 0 20 -7 20 -160 l0 -160
-190 0 c-120 0 -190 -4 -190 -10 0 -6 69 -10 188 -10 l187 0 160 -160 160
-160 -178 0 c-111 0 -177 -4 -177 -10 0 -6 68 -10 185 -10 l185 0 0 -285 0
-285 -293 0 -292 0 -167 168 -168 167 -3 190 -2 190 -3 -192 -2 -193 -195 0
c-123 0 -195 -4 -195 -10 0 -6 71 -10 193 -10 l192 0 165 -165 165 -165 -165
-165 -165 -165 -192 0 c-122 0 -193 -4 -193 -10 0 -6 72 -10 195 -10 l195 0 0
-185 0 -185 -197 -2 -198 -3 190 -2 190 -3 167 -168 168 -167 -137 -137 c-178
-178 -171 -181 -176 86 l-2 191 -3 -192 -2 -193 -195 0 c-123 0 -195 -4 -195
-10 0 -6 69 -10 188 -10 171 0 191 -2 206 -18 15 -18 15 -20 -2 -35 -15 -14
-49 -17 -208 -20 l-189 -2 198 -3 197 -2 2 -197 3 -198 2 189 c5 269 -2 265
175 89 l138 -138 -167 -167 -167 -168 -191 -3 -190 -2 198 -3 197 -2 0 -185 0
-185 -195 0 c-123 0 -195 -4 -195 -10 0 -6 71 -10 193 -10 l192 0 165 -165
165 -165 -165 -165 -165 -165 -192 0 c-122 0 -193 -4 -193 -10 0 -6 72 -10
195 -10 l195 0 2 -192 3 -193 2 190 3 190 168 167 167 168 292 0 293 0 0 -285
0 -285 -185 0 c-117 0 -185 -4 -185 -10 0 -6 66 -10 177 -10 l178 0 -160 -160
-160 -160 -187 0 c-119 0 -188 -4 -188 -10 0 -6 70 -10 190 -10 l190 0 0 -160
c0 -153 -1 -160 -20 -160 -11 0 -20 -4 -20 -10 0 -5 9 -10 20 -10 13 0 20 -7
20 -20 0 -11 5 -20 10 -20 6 0 10 9 10 20 0 19 7 20 160 20 l160 0 3 -192 2
-193 3 190 2 190 165 165 165 165 0 -183 c0 -115 4 -182 10 -182 6 0 10 68 10
185 l0 185 285 0 285 0 0 -288 0 -287 -168 -168 -167 -167 -188 0 c-118 0
-187 -4 -187 -10 0 -6 70 -10 190 -10 l190 0 0 -190 c0 -120 4 -190 10 -190 6
0 10 69 10 188 l0 187 165 165 165 165 165 -165 165 -165 0 -187 c0 -119 4
-188 10 -188 6 0 10 70 10 190 l0 190 180 0 180 0 0 -190 c0 -120 4 -190 10
-190 6 0 10 69 10 188 l0 187 165 165 165 165 165 -165 165 -165 0 -187 c0
-119 4 -188 10 -188 6 0 10 70 10 190 l0 190 190 0 c120 0 190 4 190 10 0 6
-69 10 -188 10 l-187 0 -168 168 -167 167 0 288 0 287 293 0 292 0 167 -168
168 -167 3 -190 2 -190 3 193 2 192 190 0 c120 0 190 4 190 10 0 6 -69 10
-188 10 l-187 0 -165 165 -165 165 165 165 165 165 187 0 c119 0 188 4 188 10
0 6 -70 10 -190 10 l-190 0 -2 193 -3 192 -2 -190 -3 -190 -168 -167 -167
-168 -290 0 -290 0 -263 263 -262 262 0 455 0 455 408 408 407 407 715 0 715
0 638 -638 637 -637 0 -1143 0 -1142 50 0 50 0 0 1143 0 1142 638 638 637 637
715 0 715 0 408 -408 407 -407 0 -455 0 -455 -263 -263 -262 -262 -290 0 -290
0 -167 167 -168 168 -3 190 -2 190 -3 -192 -2 -193 -190 0 c-120 0 -190 -4
-190 -10 0 -6 69 -10 188 -10 l187 0 165 -165 165 -165 -165 -165 -165 -165
-187 0 c-119 0 -188 -4 -188 -10 0 -6 70 -10 190 -10 l190 0 2 -192 3 -193 2
190 3 190 168 167 167 168 292 0 293 0 0 -288 0 -287 -168 -168 -167 -167
-188 0 c-118 0 -187 -4 -187 -10 0 -6 70 -10 190 -10 l190 0 0 -190 c0 -120 4
-190 10 -190 6 0 10 69 10 188 l0 187 165 165 165 165 165 -165 165 -165 0
-187 c0 -119 4 -188 10 -188 6 0 10 70 10 190 l0 190 180 0 180 0 0 -190 c0
-120 4 -190 10 -190 6 0 10 69 10 188 l0 187 165 165 165 165 165 -165 165
-165 0 -187 c0 -119 4 -188 10 -188 6 0 10 70 10 190 l0 190 190 0 c120 0 190
4 190 10 0 6 -69 10 -188 10 l-187 0 -168 168 -167 167 0 288 0 287 285 0 285
0 0 -185 c0 -117 4 -185 10 -185 6 0 10 67 10 182 l0 183 165 -165 165 -164 3
-191 2 -190 3 193 2 192 160 0 c153 0 160 -1 160 -20 0 -11 5 -20 10 -20 6 0
10 9 10 20 0 13 7 20 20 20 11 0 20 5 20 10 0 6 -9 10 -20 10 -19 0 -20 7 -20
160 l0 160 190 0 c120 0 190 4 190 10 0 6 -69 10 -188 10 l-187 0 -160 160
-160 160 178 0 c111 0 177 4 177 10 0 6 -68 10 -185 10 l-185 0 0 285 0 285
293 0 292 0 167 -168 168 -167 3 -190 2 -190 3 193 2 192 195 0 c123 0 195 4
195 10 0 6 -71 10 -193 10 l-192 0 -165 165 -165 165 165 165 165 165 192 0
c122 0 193 4 193 10 0 6 -72 10 -195 10 l-195 0 0 185 0 185 198 2 197 3 -190
2 -191 3 -167 168 -167 167 138 138 c177 176 170 180 175 -89 l2 -189 3 198 2
197 198 2 197 3 -189 2 c-159 3 -193 6 -208 20 -17 15 -17 17 -2 35 15 16 35
18 206 18 119 0 188 4 188 10 0 6 -72 10 -195 10 l-195 0 -3 193 -2 192 -3
-191 c-3 -267 3 -264 -175 -86 l-137 137 168 167 167 168 190 3 190 2 -197 3
-198 2 0 185 0 185 195 0 c123 0 195 4 195 10 0 6 -71 10 -193 10 l-192 0
-165 165 -165 165 165 165 165 165 192 0 c122 0 193 4 193 10 0 6 -72 10 -195
10 l-195 0 -2 193 -3 192 -2 -190 -3 -190 -168 -167 -167 -168 -292 0 -293 0
0 285 0 285 185 0 c117 0 185 4 185 10 0 6 -66 10 -177 10 l-178 0 160 160
160 160 187 0 c119 0 188 4 188 10 0 6 -70 10 -190 10 l-190 0 0 160 c0 153 1
160 20 160 11 0 20 5 20 10 0 6 -9 10 -20 10 -13 0 -20 7 -20 20 0 11 -4 20
-10 20 -5 0 -10 -9 -10 -20 0 -19 -7 -20 -160 -20 l-160 0 -2 193 -3 192 -2
-190 -3 -190 -77 -77 -78 -78 -87 0 -88 0 0 95 c0 57 -4 95 -10 95 -6 0 -10
-38 -10 -95 l0 -95 -83 0 -82 0 -165 165 -165 165 165 165 165 165 192 0 c122
0 193 4 193 10 0 6 -72 10 -195 10 l-195 0 0 25 0 25 155 0 c97 0 155 4 155
10 0 6 -58 10 -155 10 l-154 0 -4 158 -3 157 -2 -157 -2 -158 -30 0 -30 0 0
190 c0 120 -4 190 -10 190 -6 0 -10 -69 -10 -188 l0 -187 -165 -165 -165 -165
-165 165 -165 165 0 82 0 83 95 0 c57 0 95 4 95 10 0 6 -38 10 -95 10 l-95 0
0 83 0 82 78 78 77 77 188 0 c118 0 187 4 187 10 0 6 -70 10 -190 10 l-190 0
0 160 c0 153 1 160 20 160 11 0 20 5 20 10 0 6 -9 10 -20 10 -13 0 -20 7 -20
20 0 11 -4 20 -10 20 -5 0 -10 -9 -10 -20 0 -19 -7 -20 -160 -20 l-160 0 -3
193 -2 192 -3 -190 -2 -190 -165 -165 -165 -165 0 183 c0 115 -4 182 -10 182
-6 0 -10 -68 -10 -185 l0 -185 -285 0 -285 0 0 288 0 287 168 168 167 167 188
0 c118 0 187 4 187 10 0 6 -70 10 -190 10 l-190 0 0 190 c0 120 -4 190 -10
190 -6 0 -10 -69 -10 -188 l0 -187 -165 -165 -165 -165 -165 165 -165 165 0
187 c0 119 -4 188 -10 188 -6 0 -10 -70 -10 -190 l0 -190 -180 0 -180 0 0 190
c0 120 -4 190 -10 190 -6 0 -10 -69 -10 -188 l0 -187 -165 -165 -165 -165
-137 137 c-118 118 -135 139 -124 152 11 14 43 16 202 16 119 0 189 4 189 10
0 6 -70 10 -190 10 l-190 0 0 190 c0 120 -4 190 -10 190 -6 0 -10 -70 -10
-189 0 -155 -3 -191 -15 -201 -12 -10 -18 -10 -30 0 -12 10 -15 46 -15 201 0
119 -4 189 -10 189 -6 0 -10 -70 -10 -190 l0 -190 -190 0 c-120 0 -190 -4
-190 -10 0 -6 70 -10 189 -10 255 0 252 6 88 -158 l-127 -127 0 43 c0 59 -18
53 -22 -8 l-3 -50 -150 150 -150 150 53 0 c28 0 52 5 52 10 0 6 -28 10 -65 10
l-65 0 0 190 c0 120 -4 190 -10 190 -6 0 -10 -70 -10 -190 l0 -190 -120 0
-120 0 -3 193 -2 192 -3 -192 -2 -193 -60 0 -60 0 -3 193 -2 192 -3 -190 -2
-190 -135 -135 -135 -135 -135 135 -135 134 -3 191 -2 190 -3 -192 -2 -193
-60 0 -60 0 -3 193 -2 192 -3 -192 -2 -193 -120 0 -120 0 0 190 c0 120 -4 190
-10 190 -6 0 -10 -70 -10 -190 l0 -190 -65 0 c-37 0 -65 -4 -65 -10 0 -5 24
-10 52 -10 l53 0 -150 -150 -150 -150 -3 50 c-4 61 -22 67 -22 8 l0 -43 -127
127 c-164 164 -167 158 88 158 119 0 189 4 189 10 0 6 -70 10 -190 10 l-190 0
0 190 c0 120 -4 190 -10 190 -6 0 -10 -70 -10 -189 0 -155 -3 -191 -15 -201
-12 -10 -18 -10 -30 0 -12 10 -15 46 -15 201 0 119 -4 189 -10 189 -6 0 -10
-70 -10 -190 l0 -190 -190 0 c-120 0 -190 -4 -190 -10 0 -6 70 -10 189 -10
159 0 191 -2 202 -16 11 -13 -6 -34 -124 -152 l-137 -137 -165 165 -165 165 0
187 c0 119 -4 188 -10 188 -6 0 -10 -70 -10 -190 l0 -190 -180 0 -180 0 0 190
c0 120 -4 190 -10 190 -6 0 -10 -69 -10 -188 l0 -187 -165 -165 -165 -165
-165 165 -165 165 0 187 c0 119 -4 188 -10 188 -6 0 -10 -70 -10 -190z m1222
-377 l168 -168 0 -280 0 -280 -155 155 -155 155 0 192 c0 122 -4 193 -10 193
-6 0 -10 -70 -10 -190 l0 -190 -190 0 c-120 0 -190 -4 -190 -10 0 -6 69 -10
188 -10 l187 0 160 -160 160 -160 -53 0 c-64 0 -70 -18 -7 -22 l45 -3 -145
-145 -145 -145 0 48 c0 26 -4 47 -10 47 -6 0 -10 -27 -10 -60 l0 -60 -167 0
-168 0 -172 172 -173 173 0 295 0 295 162 162 163 163 180 0 180 0 167 -167z
m1540 0 l168 -168 0 -287 0 -288 -290 0 -291 0 3 153 3 152 193 3 c116 1 192
6 192 12 0 6 -73 10 -190 10 l-190 0 -2 193 -2 192 -5 -192 -6 -193 -82 -82
-83 -83 -75 75 -75 74 0 131 0 130 167 167 168 168 115 0 115 0 167 -167z m96
34 l133 -133 -24 -22 -23 -21 -154 154 -155 155 45 0 c45 0 47 -2 178 -133z
m372 -22 l-154 -154 -23 21 -24 22 133 133 c131 131 133 133 178 133 l45 0
-155 -155z m592 -12 l168 -168 0 -130 0 -131 -75 -74 -75 -75 -83 83 -82 82
-6 193 -5 192 -2 -192 -2 -193 -190 0 c-117 0 -190 -4 -190 -10 0 -6 76 -11
193 -12 l192 -3 3 -152 3 -153 -291 0 -290 0 0 287 0 288 167 167 168 168 115
0 115 0 167 -167z m1665 5 l163 -163 0 -295 0 -295 -172 -172 -173 -173 -167
0 -168 0 0 60 c0 33 -4 60 -10 60 -5 0 -10 -21 -10 -47 l0 -48 -145 145 -145
145 45 3 c63 4 57 22 -7 22 l-53 0 160 160 160 160 187 0 c119 0 188 4 188 10
0 6 -70 10 -190 10 l-190 0 0 190 c0 120 -4 190 -10 190 -6 0 -10 -71 -10
-193 l0 -192 -155 -155 -155 -155 0 282 0 281 161 166 161 166 186 0 187 0
162 -162z m-3635 -35 l138 -138 0 -122 0 -123 -160 0 c-159 0 -160 0 -161 23
l-2 22 -4 -22 c-3 -16 -11 -23 -29 -23 -13 0 -24 -4 -24 -10 0 -5 11 -10 25
-10 l25 0 0 -155 0 -155 -115 0 -115 0 0 287 0 288 137 137 c76 76 140 138
143 138 2 0 67 -62 142 -137z m2600 0 l138 -138 0 -287 0 -288 -115 0 -115 0
0 155 0 155 25 0 c14 0 25 5 25 10 0 6 -11 10 -25 10 -19 0 -25 6 -26 23 l-2
22 -4 -22 c-4 -23 -6 -23 -164 -23 l-159 0 0 122 0 123 137 137 c76 76 140
138 143 138 2 0 67 -62 142 -137z m-1415 -115 l23 -21 0 -287 0 -287 -25 -23
-25 -23 -25 23 -25 23 0 286 c0 279 0 285 22 308 26 28 26 28 55 1z m-3477
-453 l165 -165 -160 -160 -160 -160 -162 162 -163 163 0 162 0 163 158 0 157
0 165 -165z m2430 10 l0 -155 -160 0 -160 0 0 155 0 155 160 0 160 0 0 -155z
m2360 0 l0 -155 -160 0 -160 0 0 155 0 155 160 0 160 0 0 -155z m2590 -8 l0
-162 -163 -163 -162 -162 -160 160 -160 160 165 165 165 165 157 0 158 0 0
-163z m-4600 -4 l0 -137 -70 69 -70 69 67 68 c37 38 69 68 70 68 2 0 3 -62 3
-137z m1413 69 l67 -68 -70 -69 -70 -69 0 137 c0 75 1 137 3 137 1 0 33 -30
70 -68z m-1661 -134 l-62 -63 0 125 0 125 62 -63 63 -62 -63 -62z m1898 60 l0
-123 -62 62 -63 63 60 60 c33 33 61 60 62 60 2 0 3 -55 3 -122z m-1737 -230
l-67 -68 -73 72 -73 72 67 68 67 68 73 -72 73 -72 -67 -68z m1655 5 l-72 -73
-68 67 -68 67 72 73 72 73 68 -67 68 -67 -72 -73z m-3321 -215 c189 -189 263
-269 263 -285 0 -22 -3 -23 -90 -23 -53 0 -90 -4 -90 -10 0 -6 37 -10 90 -10
l90 0 0 -267 0 -267 -62 -63 c-47 -47 -69 -63 -90 -63 -15 0 -28 -4 -28 -10 0
-5 8 -10 17 -10 11 0 -11 -28 -62 -80 l-80 -80 -292 0 -293 0 0 287 0 288 167
167 168 168 187 0 c119 0 188 4 188 10 0 6 -70 10 -190 10 l-190 0 0 190 c0
120 -4 190 -10 190 -6 0 -10 -69 -10 -188 l0 -187 -165 -165 -165 -165 -165
165 -165 165 0 180 0 179 67 68 67 68 291 0 290 0 262 -262z m1233 107 l155
-155 -183 0 c-115 0 -182 -4 -182 -10 0 -6 70 -10 190 -10 l190 0 0 -285 0
-285 -293 0 -292 0 -163 163 -162 162 0 115 0 115 172 172 173 173 120 0 120
0 155 -155z m253 77 l77 -77 -73 -73 -72 -72 -150 150 -150 150 145 0 145 0
78 -78z m874 56 l24 -22 -133 -133 -133 -133 -165 0 -165 0 -85 85 -85 85 70
70 69 70 290 0 c285 0 290 0 313 -22z m798 -48 l70 -70 -85 -85 -85 -85 -165
0 -165 0 -132 132 -133 132 22 23 c21 23 22 23 313 23 l291 0 69 -70z m420
-80 l-150 -150 -72 72 -73 73 77 77 78 78 145 0 145 0 -150 -150z m602 -22
l173 -173 0 -115 0 -115 -162 -162 -163 -163 -292 0 -293 0 0 285 0 285 190 0
c120 0 190 4 190 10 0 6 -67 10 -182 10 l-183 0 155 155 155 155 120 0 120 0
172 -172z m1575 105 l68 -67 0 -181 0 -180 -165 -165 -165 -165 -165 165 -165
165 0 187 c0 119 -4 188 -10 188 -6 0 -10 -70 -10 -190 l0 -190 -190 0 c-120
0 -190 -4 -190 -10 0 -6 69 -10 187 -10 l188 0 167 -167 168 -168 0 -287 0
-288 -293 0 -292 0 -80 80 c-51 52 -73 80 -62 80 9 0 17 5 17 10 0 6 -12 10
-27 10 -20 0 -44 17 -90 62 l-63 62 0 268 0 268 90 0 c53 0 90 4 90 10 0 6
-37 10 -90 10 -87 0 -90 1 -90 22 0 16 75 98 262 285 l263 263 290 0 289 0 68
-67z m-3110 -240 l218 -218 0 -452 0 -453 -440 0 -440 0 0 452 0 453 217 217
c120 120 220 218 223 218 3 0 103 -98 222 -217z m-3642 -23 l0 -170 -80 0 -80
0 0 92 0 93 77 77 c43 43 79 78 80 78 2 0 3 -76 3 -170z m7000 -77 l0 -93 -80
0 -80 0 0 172 0 173 80 -80 80 -80 0 -92z m-4327 139 l87 -87 2 -180 2 -180 3
175 3 174 75 -74 75 -74 0 -441 0 -440 -245 245 -245 245 0 290 0 290 72 72
c40 40 75 73 78 73 3 0 45 -39 93 -88z m1665 15 l72 -72 0 -290 0 -290 -245
-245 -245 -245 0 440 0 441 75 74 75 74 3 -174 3 -175 2 180 2 180 87 87 c48
49 90 88 93 88 3 0 38 -33 78 -73z m-4538 -162 l0 -85 -80 0 -80 0 0 85 0 85
80 0 80 0 0 -85z m1562 13 l-72 -73 -72 73 -73 72 145 0 145 0 -73 -72z m1660
0 l-72 -73 -72 73 -73 72 145 0 145 0 -73 -72z m940 0 l-72 -73 -72 73 -73 72
145 0 145 0 -73 -72z m1660 0 l-72 -73 -72 73 -73 72 145 0 145 0 -73 -72z
m1578 -13 l0 -85 -80 0 -80 0 0 85 0 85 80 0 80 0 0 -85z m-5740 -60 l0 -95
-70 0 c-70 0 -70 0 -70 27 0 20 17 45 67 95 37 38 69 68 70 68 2 0 3 -43 3
-95z m4060 -67 c0 -28 0 -28 -70 -28 l-70 0 0 97 0 97 70 -69 c53 -53 70 -76
70 -97z m-6418 -145 c175 -175 200 -213 141 -213 -22 0 -60 32 -195 167 -175
175 -200 213 -141 213 22 0 60 -32 195 -167z m698 -23 l0 -190 -245 0 -245 0
0 27 c0 22 32 59 162 190 l163 163 82 0 83 0 0 -190z m367 28 l163 -163 0
-275 0 -275 -245 245 -245 245 0 192 0 193 82 0 83 0 162 -162z m6833 -31 l0
-192 -245 -245 -245 -245 0 275 0 275 162 162 163 163 82 0 83 0 0 -193z m367
31 c132 -132 163 -168 163 -190 l0 -28 -245 0 -245 0 0 190 0 190 82 0 83 0
162 -162z m593 140 c0 -16 -51 -73 -167 -190 -136 -136 -173 -168 -195 -168
-60 0 -35 37 139 212 136 136 173 168 195 168 22 0 28 -5 28 -22z m-6492 -110
c3 -67 22 -79 22 -16 l0 43 150 -150 150 -150 -87 -87 -88 -88 -147 0 -148 0
0 255 0 256 73 -3 72 -3 3 -57z m4052 -193 l0 -255 -148 0 -147 0 -88 88 -87
87 150 150 150 150 0 -43 c0 -23 5 -42 10 -42 6 0 10 24 10 53 0 30 3 57 7 60
3 4 37 7 75 7 l68 0 0 -255z m-6250 -340 l0 -245 -195 0 -195 0 0 77 0 78 167
167 c136 136 173 168 195 168 l28 0 0 -245z m783 -13 l257 -257 -245 -245
-245 -245 -255 255 -255 255 0 247 0 248 243 0 242 0 258 -258z m2597 3 l255
-255 -260 -260 -260 -260 -265 0 -265 0 -187 188 -188 187 0 160 0 160 77 77
c51 52 85 78 100 78 13 0 23 5 23 10 0 6 -6 10 -12 10 -7 0 23 36 67 80 l80
80 290 0 290 0 255 -255z m2455 175 c44 -44 74 -80 67 -80 -6 0 -12 -4 -12
-10 0 -5 10 -10 22 -10 15 0 50 -27 100 -77 l78 -78 0 -160 0 -160 -188 -187
-187 -188 -265 0 -265 0 -260 260 -260 260 255 255 255 255 290 0 290 0 80
-80z m2425 -168 l0 -247 -255 -255 -255 -255 -245 245 -245 245 257 257 258
258 242 0 243 0 0 -248z m262 81 l168 -168 0 -77 0 -78 -195 0 -195 0 0 245 0
245 27 0 c22 0 60 -32 195 -167z m-9292 -178 l165 -165 -158 -157 -157 -158
-165 165 -165 165 0 157 0 158 158 0 157 0 165 -165z m3030 100 l-64 -65 -73
0 -73 0 0 65 0 65 137 0 137 0 -64 -65z m3990 0 l0 -65 -73 0 -73 0 -64 65
-64 65 137 0 137 0 0 -65z m3300 -93 l0 -157 -165 -165 -165 -165 -157 158
-158 157 165 165 165 165 157 0 158 0 0 -158z m-9950 -72 l0 -80 -85 0 -85 0
0 80 0 80 85 0 85 0 0 -80z m2390 0 l0 -80 -132 0 -133 0 80 80 c79 80 80 80
132 80 l53 0 0 -80z m200 -72 l0 -152 -70 69 -70 69 0 83 0 83 70 0 70 0 0
-152z m4060 69 l0 -83 -70 -69 -70 -69 0 152 0 152 70 0 70 0 0 -83z m245 3
l80 -80 -133 0 -132 0 0 80 0 80 53 0 c52 0 53 0 132 -80z m2375 0 l0 -80 -85
0 -85 0 0 80 0 80 85 0 85 0 0 -80z m-9270 -205 l0 -85 -177 0 -178 0 85 85
85 85 92 0 93 0 0 -85z m655 -165 l250 -250 -275 0 -275 0 -172 172 -173 173
0 77 0 78 198 0 197 0 250 -250z m8435 173 l0 -78 -172 -172 -173 -173 -275 0
-275 0 250 250 250 250 197 0 198 0 0 -77z m280 -8 l85 -85 -178 0 -177 0 0
85 0 85 93 0 92 0 85 -85z m-7196 -4 c73 -73 77 -80 55 -84 -20 -4 -20 -4 6
-6 24 -1 48 -18 108 -78 l77 -78 3 -190 2 -190 3 193 2 192 142 0 143 0 97
-97 98 -98 -162 -162 -163 -163 -187 0 c-119 0 -188 -4 -188 -10 0 -6 70 -10
190 -10 l190 0 0 -190 c0 -120 4 -190 10 -190 6 0 10 69 10 188 l0 187 163
163 162 162 138 -138 137 -138 -2 -309 -3 -310 -197 -3 c-121 -1 -198 -6 -198
-12 0 -6 74 -10 193 -10 l194 0 6 -287 c4 -157 7 -333 7 -390 l0 -103 -707 0
-708 0 -247 247 -248 248 0 142 0 143 190 0 c120 0 190 4 190 10 0 6 -69 10
-187 10 l-188 0 -162 162 -163 163 0 305 0 305 252 252 253 253 305 0 305 0
79 -79z m301 -1 l80 -80 -130 0 -130 0 -80 80 -80 80 130 0 130 0 80 -80z
m2792 -192 l273 -273 0 -280 0 -280 -167 -167 -168 -168 -192 0 c-122 0 -193
-4 -193 -10 0 -6 72 -10 195 -10 l195 0 2 -192 3 -193 2 190 3 190 168 167
167 168 127 -127 128 -128 0 -430 0 -430 -630 -630 -630 -630 -630 630 -630
630 0 430 0 430 128 128 127 127 167 -168 168 -167 3 -190 2 -190 3 193 2 192
195 0 c123 0 195 4 195 10 0 6 -71 10 -192 10 l-193 0 -167 167 -168 168 0
280 0 280 272 272 273 273 445 0 445 0 272 -272z m1618 192 l-80 -80 -130 0
-130 0 80 80 80 80 130 0 130 0 -80 -80z m982 -172 l253 -253 0 -305 0 -305
-162 -162 -163 -163 -187 0 c-119 0 -188 -4 -188 -10 0 -6 70 -10 190 -10
l190 0 0 -142 0 -143 -247 -247 -248 -248 -707 0 -708 0 0 103 c0 57 3 233 7
390 l6 287 194 0 c119 0 193 4 193 10 0 6 -77 11 -197 12 l-198 3 -3 310 -2
309 137 138 138 138 162 -162 163 -163 0 -187 c0 -119 4 -188 10 -188 6 0 10
70 10 190 l0 190 190 0 c120 0 190 4 190 10 0 6 -69 10 -187 10 l-188 0 -162
162 -163 163 97 97 98 98 142 0 143 0 2 -192 3 -193 2 190 3 190 77 78 c60 60
84 77 108 78 26 2 26 2 6 6 -22 4 -18 11 55 84 l79 79 305 0 305 0 252 -252z
m-7715 -85 l168 -168 -167 -167 -168 -168 -187 0 c-119 0 -188 -4 -188 -10 0
-6 72 -10 195 -10 l195 0 2 -192 3 -193 2 190 3 190 173 173 172 172 282 0
283 0 0 -297 0 -298 -147 -147 -148 -148 -305 0 -305 0 -257 257 -258 258 0
295 0 294 67 68 67 68 176 0 175 0 167 -167z m2478 102 l64 -65 -130 0 -130 0
-64 65 -64 65 130 0 130 0 64 -65z m4100 0 l-64 -65 -130 0 -130 0 64 65 64
65 130 0 130 0 -64 -65z m2802 -2 l68 -67 0 -296 0 -295 -257 -257 -258 -258
-305 0 -305 0 -147 147 -148 148 0 297 0 298 283 0 282 0 172 -172 173 -173 3
-190 2 -190 3 193 2 192 195 0 c123 0 195 4 195 10 0 6 -69 10 -187 10 l-188
0 -167 167 -168 168 167 167 168 168 175 0 174 0 68 -67z m-6165 -400 l-117
-118 -117 118 -118 117 235 0 235 0 -118 -117z m2600 0 l-117 -118 -117 118
-118 117 235 0 235 0 -118 -117z m-2557 -588 l-120 -120 0 265 0 265 118 118
117 117 3 -262 2 -263 -120 -120z m2400 145 l0 -265 -120 120 -120 120 0 265
0 265 120 -120 120 -120 0 -265z m-6178 -27 l178 -178 0 -160 0 -160 -170
-170 -170 -170 -160 160 -160 160 0 192 c0 122 -4 193 -10 193 -6 0 -10 -70
-10 -190 l0 -190 -190 0 c-120 0 -190 -4 -190 -10 0 -6 69 -10 188 -10 l187 0
160 -160 160 -160 -280 0 -280 0 -172 172 -173 173 0 175 0 175 167 167 168
168 290 0 290 0 177 -177z m10760 10 l168 -168 0 -175 0 -175 -172 -172 -173
-173 -280 0 -280 0 160 160 160 160 187 0 c119 0 188 4 188 10 0 6 -70 10
-190 10 l-190 0 0 190 c0 120 -4 190 -10 190 -6 0 -10 -71 -10 -193 l0 -192
-160 -160 -160 -160 -170 170 -170 170 0 160 0 160 177 177 178 178 290 0 290
0 167 -167z m-9472 -188 l0 -125 -127 0 -128 0 125 125 c69 69 126 125 127
125 2 0 3 -56 3 -125z m7390 0 l125 -125 -128 0 -127 0 0 125 c0 69 1 125 3
125 1 0 58 -56 127 -125z m-7030 -310 l0 -130 -150 150 -150 150 0 130 0 130
150 -150 150 -150 0 -130z m6690 20 l-150 -150 0 130 0 130 148 148 147 147 3
-127 3 -127 -151 -151z m-8067 197 l67 -68 -70 -69 -70 -69 0 137 c0 75 1 137
3 137 1 0 33 -30 70 -68z m9367 -69 l0 -137 -70 69 -70 69 67 68 c37 38 69 68
70 68 2 0 3 -62 3 -137z m-8670 -208 c0 -117 4 -185 10 -185 6 0 10 68 10 185
l0 185 152 0 153 0 402 -402 403 -403 -402 -402 -403 -403 -450 0 -451 0 -74
75 -74 75 167 0 c105 0 167 4 167 10 0 6 -66 10 -177 10 l-178 0 -177 177
-178 178 0 285 0 285 172 172 173 173 182 0 c115 0 183 4 183 10 0 6 -64 10
-172 10 l-172 0 74 75 74 75 293 0 293 0 0 -185z m7880 0 c0 -117 4 -185 10
-185 6 0 10 68 10 185 l0 185 293 0 293 0 74 -75 74 -75 -172 0 c-108 0 -172
-4 -172 -10 0 -6 67 -10 182 -10 l183 0 172 -172 173 -173 0 -285 0 -285 -177
-177 -178 -178 -177 0 c-112 0 -178 -4 -178 -10 0 -6 62 -10 167 -10 l167 0
-74 -75 -74 -75 -451 0 -450 0 -402 402 -403 403 403 402 402 403 153 0 152 0
0 -185z m-9020 -620 l0 -285 -287 0 -288 0 -142 142 -143 143 142 142 143 143
287 0 288 0 0 -285z m10897 143 l143 -143 -142 -142 -143 -143 -287 0 -288 0
0 285 0 285 287 0 288 0 142 -142z m-11072 -618 l-160 -160 -187 0 c-119 0
-188 -4 -188 -10 0 -6 70 -10 190 -10 l190 0 0 -190 c0 -120 4 -190 10 -190 6
0 10 71 10 193 l0 192 160 160 160 160 170 -170 170 -170 0 -160 0 -160 -177
-177 -178 -178 -290 0 -290 0 -167 167 -168 168 0 175 0 175 172 172 173 173
280 0 280 0 -160 -160z m11102 -12 l173 -173 0 -175 0 -175 -167 -167 -168
-168 -290 0 -290 0 -177 177 -178 178 0 160 0 160 170 170 170 170 160 -160
160 -160 0 -192 c0 -122 4 -193 10 -193 6 0 10 70 10 190 l0 190 190 0 c120 0
190 4 190 10 0 6 -69 10 -188 10 l-187 0 -160 160 -160 160 280 0 280 0 172
-172z m-10484 -276 l67 -68 -70 -69 -70 -69 0 137 c0 75 1 137 3 137 1 0 33
-30 70 -68z m9367 -69 l0 -137 -70 69 -70 69 67 68 c37 38 69 68 70 68 2 0 3
-62 3 -137z m-8350 -480 l0 -458 -257 -257 -258 -258 -295 0 -295 0 -157 157
-158 158 0 295 0 295 262 262 263 263 447 0 448 0 0 -457z m8417 195 l263
-263 0 -295 -1 -295 -163 -157 -164 -158 -289 0 -288 0 -257 257 -258 258 0
457 0 458 447 0 448 0 262 -262z m-8129 -951 l252 -252 0 -295 0 -295 -163
-163 -162 -162 -185 0 -185 0 -162 162 -163 163 0 295 0 295 252 252 c139 139
255 253 258 253 3 0 119 -114 258 -253z m7200 0 l252 -252 0 -295 0 -295 -163
-163 -162 -162 -185 0 -185 0 -162 162 -163 163 0 295 0 295 252 252 c139 139
255 253 258 253 3 0 119 -114 258 -253z m-8768 -82 l155 -155 -165 -165 -165
-165 -157 0 -158 0 0 157 0 158 162 162 c90 90 165 163 168 163 3 0 75 -70
160 -155z m10147 -7 l163 -163 0 -157 0 -158 -158 0 -157 0 -165 165 -165 165
155 155 c85 85 157 155 160 155 3 0 78 -73 167 -162z"/>
</g>
</svg>
